<?xml version="1.0" encoding="UTF-8"?>
<svg id="Capa_1" data-name="Capa 1" xmlns="http://www.w3.org/2000/svg" viewBox="0 0 270.01 354.65">
  <path d="m186.98,345.61c-.3-3.4-.66-5.61-.66-7.81,0-6.09.71-12.23.11-18.25-.6-5.92,2.76-8.71,6.88-11.12,7.73-4.51,10.37-11.93,11.32-20.02.72-6.1-.73-11.78-4.49-17.18-1.93-2.78-1.86-7.25-1.94-10.97-.18-8.36.15-16.74.18-25.1.02-4.41,2.85-7.5,6.36-7.83,12.32-1.15,20.33-8.7,27.24-17.59,7.02-9.02,8.06-19.94,8.13-31.07.07-10.96-2.97-21.23-6.64-31.26-2.03-5.54-5.31-10.79-8.82-15.6-5.25-7.2-10.42-14.75-17-20.61-9.64-8.59-20.53-15.46-32.95-20.12-13.42-5.04-26.98-7.7-41.12-6.56-9.85.8-19.66,2.55-28.47,7.59-7.84,4.49-15.4,9.6-23.58,13.32-7.26,3.3-14.11,7.01-19.97,12.32-11.1,10.08-18.06,22.56-18.69,37.67-.33,8.03,2.03,15.78,5.36,23.37,4.8,10.92,13.3,17.01,23.42,22.03,3.07,1.53,5.42,4.76,7.75,7.51,7.42,8.73,17,12.86,28.18,13.92,3.7.35,7.42.74,11.08,1.38,3.82.66,6.41,4.47,6.42,9.34.03,17.28,0,34.56-.04,51.84,0,3.26-.12,6.52-.19,9.77-.1,4.63-1.72,8.46-4.16,12.57-2.41,4.07-3.07,9.58-3.26,14.5-.37,9.55.2,19.12.23,28.69.01,2.72-1.44,4.89-4.41,4.15-8.07-1.99-16.17-3.98-24-6.71-4.05-1.41-2.19-5.88-2.3-8.94-.31-8.31-.14-16.64-.14-24.97,0-7.18-.1-14.37.15-21.54.05-1.4,1.33-2.9,2.34-4.09,1.42-1.67,3.04-3.21,4.74-4.61,6.43-5.32,7.46-12.43,4.94-19.53-2.27-6.39-7.22-10.32-14.55-11.98-10.87-2.46-22.51,6.98-22.83,17.84-.14,4.72,1.15,9.97,5.47,12.77,6.59,4.27,7.09,10.38,6.96,17.2-.22,11.93-.09,23.86-.25,35.79-.02,1.27-.79,2.65-1.56,3.73-.21.29-1.82-.2-2.63-.63-17.38-9.17-31.09-22.71-42.66-38.15-6.57-8.77-11.52-18.95-15.99-29.03-3.86-8.69-6.78-17.99-8.7-27.31C.47,235.75.03,226.76,0,217.93c-.03-8.82.83-17.68,1.96-26.44.74-5.75,2.3-11.47,4.1-17,2.59-8,5.49-15.91,8.73-23.67,1.95-4.68,4.5-9.19,7.3-13.43,5.81-8.81,11.77-17.52,18.03-26.01,5.04-6.83,10.61-13.27,15.94-19.9,12.58-15.64,25.03-31.39,37.78-46.9,11.17-13.59,22.62-26.96,34.07-40.31,4.8-5.6,8.2-5.7,13.05-.19,11.62,13.22,23.11,26.56,34.48,39.99,11.75,13.87,23.38,27.85,34.92,41.9,7.25,8.83,14.3,17.83,21.33,26.84,3.43,4.39,6.92,8.78,9.81,13.52,3.79,6.2,7.09,12.7,10.47,19.14,2.02,3.86,3.98,7.78,5.64,11.8,6.43,15.6,11.6,31.54,11.97,48.62.22,9.87.89,19.83-.06,29.61-.79,8.18-3.2,16.29-5.72,24.17-2.64,8.29-5.41,16.75-9.66,24.26-4.94,8.73-10.94,17.06-17.62,24.55-7.31,8.2-15.4,15.93-24.13,22.57-7.36,5.6-16.12,9.34-25.41,14.56Z"/>
  <path d="m136.11,194.85c3.33-5.44,6.24-11.29,10.18-16.33,4.7-6,11.98-6.22,18.99-6.64,6.09-.36,12.42,1.12,18.02-3.11,6.69-5.07,9.06-13.75,6.98-22.68-2.72-11.65-10.54-18.9-19.64-25.33-2.05-1.45-5.43-2.05-6.27-3.92-.95-2.11-.59-5.85.8-7.67,1.23-1.61,5-2.69,7.02-2.04,9.67,3.11,18.19,8.22,23.12,17.59,2.21,4.22,3.09,9.21,5.67,13.13,2.33,3.54,5.75,6.81,9.42,8.93,6.75,3.91,11.02,9.9,14.11,16.43,1.96,4.14,2.25,9.52,1.86,14.22-.8,9.71-4.44,18.29-12.29,24.8-5.74,4.76-12.4,6.02-19.45,6.13-2.4.04-5.36.14-7.06-1.13-1.93-1.45-4.05-4.65-3.67-6.63.38-2.02,3.5-4.56,5.76-4.98,5.05-.92,10.04-1.11,14.59-4.2,4.27-2.9,9.2-12.85,8.14-19.27-.95-5.72-3.87-9.1-7.83-12.64-1.42,3.56-3.08,6.61-3.86,9.86-2.51,10.5-15.18,15.69-24.4,15.53-5.59-.1-11.21.09-16.77.64-3.73.37-6.13,2.72-7.53,6.5-1.96,5.27-2.93,10.38-1.52,15.98.87,3.46,2.52,5.43,6.11,5.89,3.42.44,6.8,1.18,10.22,1.69,10.23,1.52,19.59,15.82,18.46,26.91-.94,9.25-.54,18.66-.32,27.98.04,1.7,1.86,3.61,3.28,4.99,5.21,5.08,4.92,15.85.71,20.63-4.68,5.31-12.89,5.96-18.21,1.56-6.52-5.39-7.89-14.28-2.62-18.94,5.76-5.1,3.8-11.36,4.12-17.26.34-6.15-.46-12.36-.12-18.5.53-9.63-4.66-15.7-14.13-15.85-1.83-.03-3.66-.32-6.52-.59-.11,5.2-.29,10.39-.3,15.57-.03,18.86.04,37.71-.05,56.57-.02,3.72.53,6.64,4.08,8.91,4.66,2.97,7.02,13.16,4.27,17.88-3.89,6.66-8.27,10.29-16.27,9.11-11.06-1.63-17.53-15.64-8.59-25.21,4.06-4.35,4.04-8.58,4.03-13.48-.01-15.22.02-30.43.03-45.65,0-10.96.17-21.92-.04-32.87-.1-5.4-5.4-9.67-11.43-9.88-7.37-.25-14.77-.2-22.1-.85-8.32-.73-16.75-11.45-17.96-17.55-.63-3.21-2.17-4.86-5.18-5.75-9.92-2.92-17.03-9.44-20.88-18.76-2.49-6.03-2.14-12.54.02-19.17,2.53-7.77,7.51-13.35,13.67-17.77,3.99-2.86,9.18-4.03,13.79-6.03,2.92-1.27,6.43-2.02,8.56-4.13,6.7-6.6,14.13-12.28,23.29-13.91,7.37-1.31,15.18-.69,22.74-.16,3.92.28,6.77,5.02,5.95,7.99-1.02,3.69-4.76,5.92-9.19,4.71-14.42-3.92-25.48,1.32-34.04,12.59-3.24,4.27-7.53,4.78-11.91,5.08-6.14.43-11.69,1.99-15.42,7.03-8.2,11.08-8.13,21.12,4.57,28.64,2.46,1.46,5.38,1.96,7.29-1.97,4.37-9.03,12.2-12.43,21.88-12.59,1.79-.03,4.17-.43,5.24-1.61,7.02-7.65,16-9.26,25.66-8.83,5.11.23,9.61-1.17,13.49-4.35,3.31-2.71,6.07-2.35,8.79.78,2.36,2.72,2.24,5.93-.33,8.98-5.47,6.48-13.04,7.71-20.69,7.41-8.01-.31-15.02.55-20.08,7.65-2.97,4.16-7.7,2.81-11.8,3.02-4.73.24-8.69,1.19-11.02,6.02-2.58,5.33-2.68,10.26.66,15.25,3.83,5.72,9.32,6.21,15.56,5.74,6.28-.47,12.61-.1,18.33-.1Z"/>
  <path d="m89.81,269.76c-.09,5.1-4.08,9.01-9.14,8.96-3.78-.03-9.27-5.29-9.08-8.69.2-3.68,5.87-9.21,9.55-9.31,3.64-.09,8.74,5.22,8.68,9.04Z"/>
</svg>